<svg width="50" height="50" fill="none" xmlns="http://www.w3.org/2000/svg"><path d="M49.42 35.774c-1.944-.392-3.41 1.012-5.244-1.08-.48-.546-1.173-.238-1.392.427-1.575 4.775-4.852 2.468-6.353-.877-.29-.647-1.114-.59-1.417 0-1.038 2.95-3.036 3.313-5.995 1.09-.47-.478-1.24-.317-1.417.435-1.289 5.482-5.79 3.976-7.177-.529-.07-.227-.22-.337-.376-.357-.316-.459-1.03-.596-1.277.047-1.774 4.633-5.067 3.924-7.116.007-.37-.707-1.134-.462-1.377.209-1.723 4.765-6.745 4.656-6.656-1.073.01-.634-.808-.759-.946-.148-1.618 7.139 5.902 8.377 8.507 3.136 2.69 3.555 6.726 4.284 8.65-.5 1.642 5.247 7.005 6.279 8.998 1.059 2.531 1.964 4.942 1.656 6.844-1.135 2.32 3.847 6.454 5.265 8.29.517 1.684 1.324 2.8.398 5.237.624.91.086 1.118-1.67.217-1.852zm-3.045 7.693c-.763 1.455-1.026 2.759-2.66 3.47-2.01.877-4.01-1.214-5.001-2.928-.342-.592-1.171-.706-1.49 0-1.4 3.092-4.499 2.337-5.821-.647-.325-.734-1.425-.603-1.56.236-.743 4.626-4.08 5.116-6.314 1.763.244-.903-1.028-1.517-1.375-.634-1.876 4.78-5.538 4.246-7.663-.02-.369-.74-1.195-.48-1.434.218-1.727 5.064-4.417 2.655-5.927-.83-.294-.68-1.133-.444-1.31.199-.825 2.993-2.184 3.552-4.474 4.327-.432.146-.365 1.015.11.942 2.623-.407 4.056-.949 5.128-3.219 2.204 3.997 5.28 4.813 7.343.608 2.676 3.891 6.975 4.335 9.105-.295 2.366 3.739 6.334 3.555 7.923-.52 2.05 2.81 5.033 3.204 7.097.06 3.072 3.589 9.354 4.392 9.578-2.334.028-.803-.918-1.04-1.255-.396zM14.11 7.505c-.514.174-.716.623-.7 1.075-3.645.626-6.004 4.803-6.286 9.004-.385 5.749 3.818 9.126 8.375 8.697 4.66-.438 7.691-5.278 7.554-10.48-.137-5.196-4.374-9.843-8.942-8.296zm.76 16.148c-3.345.319-5.509-2.305-5.445-6.069.067-3.944 2.669-6.545 5.684-7.585.056-.019.095-.052.14-.08 2.94.532 5.164 1.832 5.476 5.881.324 4.2-2.33 7.516-5.856 7.853zm-5-16.322c-.55-.693-1.157-1.302-1.78-1.903-.616-.597-1.27-1.75-2.14-1.656-.461.05-.773.39-.805.935-.061 1.036.818 1.544 1.457 2.072.73.604 1.49 1.144 2.168 1.83.753.761 1.783-.414 1.1-1.278zM4.827 10.45c.293.04.034-.009-.043-.037a4.88 4.88 0 01-.35-.147 12.875 12.875 0 01-.392-.184l-.026-.013a1.096 1.096 0 00-.61-.598c-.489-.179-1.232-.605-1.76-.412-.299.109-.611.396-.67.778v.002c-.055.361-.031.832.247 1.083.154.14.335.238.524.323-.153 0-.03.008.109.046.098.039.194.079.295.11.243.095.486.191.728.29a.706.706 0 00.42.033c.497.153 1.041.327 1.529.293.885-.063.847-1.448 0-1.567zM3.31 19.259c-.373.362-.807.646-1.23.918-.219.141-.445.287-.68.39-.14.061-.363.01-.054.075-.154-.032-.299-.036-.452-.055-1.286-.161-1.169 2.537.249 2.135.522-.148 1.056-.727 1.5-1.098.515-.43 1.03-.9 1.454-1.45.485-.628-.241-1.448-.788-.915zm3.277 5.347c-.436.777-.833 1.582-1.248 2.374-.45.858-1.21 1.498-1.31 2.525-.064.655.554.98 1.01.894.933-.176 1.388-1.555 1.73-2.449.351-.921.567-1.888.85-2.84.216-.731-.697-1.102-1.032-.504zm8.816 2.793c-.092-.549-.822-.523-.93 0-.28 1.372-.609 2.734-.885 4.108-.066.331-.009.715.218.954-.037-.058-.033-.046.012.034.27.512.837.453 1.117 0-.256.414.18-.201.197-.233.102-.204.111-.419.122-.648.023-.475.07-.948.11-1.422.077-.922.193-1.875.039-2.793zm9.695.811c-.668-1.113-1.727-1.827-2.334-2.975-.415-.787-1.367-.102-1.046.71.278.703.703 1.287 1.142 1.862.21.275.424.543.608.842.251.407.355.864.844.944.282.045.604-.02.746-.353l.04-.093c.121-.284.168-.657 0-.937zm3.883-8.3c-1.123.07-2.247.135-3.37.2-1.011.059-1.011 1.764 0 1.823 1.123.065 2.247.13 3.37.199 1.233.075 1.233-2.297 0-2.222zm0-12.811c-1.019-.025-1.842 1.397-2.453 2.223-.656.887-1.233 1.849-1.902 2.725-.511.668.277 1.595.846.983.675-.725 1.288-1.522 1.935-2.279.366-.427.744-.858 1.16-1.22.51-.446.91-.59 1.137-1.33.17-.548-.265-1.091-.723-1.102zm-4.896-5.803c-.603.45-1.006 1.18-1.42 1.847-.483.778-.943 1.56-1.502 2.27-.633.804.352 1.96 1.032 1.198.527-.592.994-1.237 1.452-1.902.492-.713 1.125-1.367 1.53-2.145.406-.78-.412-1.775-1.092-1.268zM16.549.227c-.294-.303-.679-.303-.973 0-.577.593-.311 1.628-.263 2.418.055.906.114 1.81.185 2.715.066.844 1.063.844 1.129 0 .07-.905.13-1.81.185-2.715.048-.79.314-1.826-.263-2.418z" fill="#00B2A0"/></svg>